<svg viewBox="0 0 512 512" xmlns="http://www.w3.org/2000/svg" xmlns:xlink="http://www.w3.org/1999/xlink" id="Layer_1" overflow="hidden"><g><g><path d="M326.555 270.261 323.459 269.255C324.3 264.964 324.752 260.535 324.752 256.001 324.752 251.467 324.3 247.038 323.459 242.747L326.555 241.741C330.89 240.332 333.265 235.674 331.854 231.337 330.445 227 325.786 224.629 321.45 226.036L318.342 227.047C314.557 218.925 309.238 211.662 302.751 205.63L304.689 202.964C307.37 199.275 306.552 194.111 302.863 191.432 299.176 188.754 294.012 189.568 291.331 193.258L289.406 195.909C281.778 191.645 273.262 188.8 264.208 187.711L264.208 184.446C264.208 179.886 260.512 176.19 255.952 176.19 251.392 176.19 247.696 179.887 247.696 184.446L247.696 187.711C238.643 188.8 230.127 191.645 222.499 195.909L220.574 193.259C217.893 189.57 212.732 188.752 209.042 191.433 205.353 194.114 204.535 199.277 207.215 202.965L209.153 205.631C202.667 211.663 197.346 218.926 193.563 227.047L190.454 226.036C186.115 224.626 181.459 227 180.05 231.337 178.641 235.673 181.013 240.331 185.351 241.74L188.447 242.746C187.606 247.037 187.154 251.466 187.154 256 187.154 260.534 187.606 264.963 188.447 269.254L185.351 270.26C181.015 271.669 178.641 276.327 180.05 280.663 181.184 284.153 184.42 286.37 187.9 286.37 188.745 286.37 189.605 286.239 190.453 285.964L193.562 284.953C197.348 293.076 202.668 300.34 209.154 306.371L207.216 309.037C204.535 312.726 205.354 317.89 209.043 320.569 210.508 321.634 212.207 322.147 213.889 322.147 216.442 322.147 218.959 320.967 220.576 318.743L222.501 316.093C230.129 320.357 238.645 323.202 247.698 324.291L247.698 327.556C247.698 332.116 251.395 335.812 255.954 335.812 260.515 335.812 264.21 332.115 264.21 327.556L264.21 324.291C273.263 323.202 281.779 320.357 289.408 316.093L291.333 318.744C292.949 320.968 295.466 322.148 298.018 322.148 299.7 322.148 301.399 321.635 302.864 320.57 306.554 317.889 307.371 312.726 304.69 309.038L302.752 306.372C309.239 300.34 314.559 293.077 318.343 284.955L321.451 285.966C322.3 286.241 323.16 286.372 324.005 286.372 327.485 286.372 330.721 284.154 331.855 280.665 333.264 276.328 330.89 271.67 326.555 270.261ZM255.951 308.29C227.119 308.29 203.661 284.833 203.661 256 203.661 227.167 227.119 203.71 255.951 203.71 284.783 203.71 308.241 227.167 308.241 256 308.241 284.833 284.784 308.29 255.951 308.29Z" stroke="#FFFFFF" stroke-width="7.32924" stroke-linecap="butt" stroke-opacity="1" fill="none" fill-opacity="1"/></g></g><g><g><circle cx="404.89" cy="107.057" r="8.256" stroke="#FFFFFF" stroke-width="7.32924" stroke-linecap="butt" stroke-opacity="1" fill="none" fill-opacity="1"/></g></g><g><g><circle cx="437.915" cy="74.032" r="8.256" stroke="#FFFFFF" stroke-width="7.32924" stroke-linecap="butt" stroke-opacity="1" fill="none" fill-opacity="1"/></g></g><g><g><path d="M497.741 334.365C488.857 308.724 476.181 282.328 460.269 256 476.181 229.672 488.857 203.276 497.741 177.635 520.487 111.984 515.808 58.624 484.568 27.384 455.406-1.778 406.209-7.806 346.036 10.407 317.037 19.185 286.531 33.252 255.998 51.71 229.655 35.785 203.243 23.1 177.587 14.211 111.936-8.535 58.576-3.856 27.336 27.385-1.475 56.196-7.713 104.696 9.773 163.949 18.498 193.514 32.814 224.75 51.726 256.026 30.638 290.94 15.277 325.77 7.046 357.953-6.924 412.58 0.281 457.564 27.335 484.617 45.535 502.817 71.239 512.002 102.51 512 124.917 512 150.182 507.284 177.586 497.789 203.227 488.905 229.623 476.229 255.951 460.317 311.742 494.111 365.373 511.907 409.162 511.907 440.118 511.907 466.167 503.015 484.568 484.615 515.808 453.376 520.486 400.016 497.741 334.365ZM350.82 26.212C404.887 9.847 448.242 14.409 472.891 39.06 499.417 65.585 502.701 112.879 482.138 172.229 474.424 194.491 463.702 217.377 450.385 240.304 428.334 206.585 401.137 173.247 369.92 142.031 338.717 110.828 305.393 83.64 271.687 61.592 298.608 45.944 325.35 33.922 350.82 26.212ZM206.28 405.4C202.715 402.557 197.521 403.141 194.677 406.706 191.833 410.271 192.418 415.465 195.983 418.309 210.75 430.089 225.555 440.799 240.261 450.434 217.332 463.751 194.444 474.474 172.182 482.188 112.83 502.751 65.538 499.467 39.013 472.942 1.466 435.395 12.017 356.758 61.567 271.663 75.798 293.433 92.177 315.091 110.4 336.084 104.524 343.904 101.036 353.618 101.036 364.131 101.036 389.929 122.024 410.917 147.822 410.917 173.62 410.917 194.608 389.929 194.608 364.131 194.608 338.333 173.62 317.345 147.822 317.345 138.493 317.345 129.801 320.1 122.496 324.824 103.042 302.372 85.766 279.189 71.094 255.985 82.412 238.107 95.388 220.042 109.967 202.102 112.842 198.563 112.305 193.363 108.766 190.487 105.227 187.612 100.028 188.149 97.152 191.688 84.175 207.658 72.281 223.959 61.594 240.327 45.528 212.704 33.288 185.283 25.612 159.274 9.915 106.091 14.674 63.398 39.011 39.06 65.536 12.535 112.829 9.25 172.18 29.814 194.457 37.532 217.357 48.263 240.3 61.592 217.055 76.789 193.94 94.44 171.615 114.167 164.884 109.4 156.677 106.588 147.82 106.588 125.057 106.588 106.538 125.107 106.538 147.87 106.538 170.633 125.056 189.152 147.82 189.152 170.584 189.152 189.102 170.633 189.102 147.87 189.102 139.926 186.842 132.504 182.938 126.201 206.705 105.233 231.339 86.708 256.001 71.115 290.985 93.236 325.756 121.22 358.244 153.708 390.749 186.211 418.743 221 440.87 256 418.743 291 390.749 325.789 358.245 358.293 325.761 390.777 290.994 418.757 256.015 440.878 239.501 430.452 222.838 418.609 206.28 405.4ZM117.548 364.131C117.548 347.438 131.129 333.858 147.821 333.858 164.514 333.858 178.094 347.438 178.094 364.131 178.094 380.824 164.514 394.404 147.821 394.404 131.128 394.404 117.548 380.824 117.548 364.131ZM172.59 147.87C172.59 161.527 161.479 172.639 147.821 172.639 134.163 172.639 123.052 161.527 123.052 147.87 123.052 134.213 134.163 123.101 147.821 123.101 161.479 123.101 172.59 134.213 172.59 147.87ZM472.891 472.94C435.591 510.243 356.74 499.739 271.712 450.391 305.409 428.347 338.725 401.164 369.922 369.968 401.137 338.751 428.335 305.413 450.387 271.695 463.704 294.622 474.426 317.509 482.14 339.77 502.701 399.121 499.416 446.415 472.891 472.94Z" stroke="#FFFFFF" stroke-width="7.32924" stroke-linecap="butt" stroke-opacity="1" fill="none" fill-opacity="1"/></g></g><g><g><circle cx="73.987" cy="437.971" r="8.256" stroke="#FFFFFF" stroke-width="7.32924" stroke-linecap="butt" stroke-opacity="1" fill="none" fill-opacity="1"/></g></g><g><g><circle cx="404.89" cy="404.945" r="8.256" stroke="#FFFFFF" stroke-width="7.32924" stroke-linecap="butt" stroke-opacity="1" fill="none" fill-opacity="1"/></g></g><g><g><circle cx="437.915" cy="437.971" r="8.256" stroke="#FFFFFF" stroke-width="7.32924" stroke-linecap="butt" stroke-opacity="1" fill="none" fill-opacity="1"/></g></g><g><g><circle cx="73.987" cy="74.032" r="8.256" stroke="#FFFFFF" stroke-width="7.32924" stroke-linecap="butt" stroke-opacity="1" fill="none" fill-opacity="1"/></g></g><g></g><g></g><g></g><g></g><g></g><g></g><g></g><g></g><g></g><g></g><g></g><g></g><g></g><g></g><g></g></svg>